<svg xmlns="http://www.w3.org/2000/svg" viewBox="0 0 1920 1080">
  <defs>
    <!-- Blue night gradient -->
    <radialGradient id="bg" cx="25%" cy="5%" r="100%">
      <stop offset="0" stop-color="#1F3358"/>
      <stop offset="0.55" stop-color="#0E1A2B"/>
      <stop offset="1" stop-color="#0A1220"/>
    </radialGradient>
    <!-- Cool silver rays -->
    <linearGradient id="ray" x1="0" y1="0" x2="0" y2="1">
      <stop offset="0" stop-color="#D4DCE6" stop-opacity="0.55"/>
      <stop offset="1" stop-color="#D4DCE6" stop-opacity="0"/>
    </linearGradient>
    <!-- Bright silver-white edge -->
    <linearGradient id="bright-silver" x1="0" y1="0" x2="1" y2="1">
      <stop offset="0" stop-color="#F7FAFF"/>
      <stop offset="1" stop-color="#C9D3E0"/>
    </linearGradient>
    <!-- Inner silver tone -->
    <linearGradient id="inner-silver" x1="0" y1="0" x2="0" y2="1">
      <stop offset="0" stop-color="#E6EBF2"/>
      <stop offset="1" stop-color="#B0BBC8"/>
    </linearGradient>
    <!-- Engraving pattern -->
    <pattern id="engrave" width="4" height="4" patternUnits="userSpaceOnUse" patternTransform="rotate(45)">
      <line x1="0" y1="0" x2="0" y2="4" stroke="#F7FAFF" stroke-opacity="0.06" stroke-width="1"/>
    </pattern>
  </defs>

  <!-- Background -->
  <rect width="1920" height="1080" fill="url(#bg)"/>

  <!-- Rays -->
  <g opacity="0.7">
    <polygon points="0,0 720,0 0,520" fill="url(#ray)"/>
    <polygon points="0,0 960,0 0,380" fill="url(#ray)" opacity="0.6"/>
    <polygon points="0,0 1180,0 0,300" fill="url(#ray)" opacity="0.45"/>
  </g>

  <!-- Etched clouds -->
  <g fill="none" stroke="#F7FAFF" stroke-opacity="0.08" stroke-width="2">
    <path d="M110,240 C420,295 630,275 930,315" />
    <path d="M210,280 C520,320 730,315 1030,355" />
    <path d="M310,320 C680,350 900,360 1260,372" />
  </g>

  <!-- Traditional cross (higher crossbar, thinner vertical post) -->
  <g transform="translate(960,420)">
    <!-- Outer bright silver-white bevel (thin stem) -->
    <path d="M-32,-270 h64 v148 h150 v68 h-150 v244 h-64 v-244 h-150 v-68 h150 z"
          fill="url(#bright-silver)"/>
    <!-- Inner silver face with engraving, inset -->
    <path d="M-24,-260 h48 v148 h150 v48 h-150 v244 h-48 v-244 h-150 v-48 h150 z"
          fill="url(#inner-silver)" stroke="url(#bright-silver)" stroke-width="2.5"/>
  </g>

  <!-- Coastal silver lines -->
  <g opacity="0.35" fill="none" stroke="#C9D3E0" stroke-width="2">
    <path d="M0,860 C240,840 420,880 640,860 C880,836 1080,892 1280,872 C1480,852 1660,900 1920,870" />
    <path d="M0,900 C220,880 420,920 620,900 C860,876 1060,932 1260,912 C1480,892 1680,930 1920,900" opacity="0.6"/>
  </g>

  <!-- Magnesium white stars -->
  <g fill="#F7FAFF" opacity="0.45">
    <circle cx="220" cy="140" r="1.6"/>
    <circle cx="380" cy="90" r="1.2"/>
    <circle cx="520" cy="180" r="1.1"/>
    <circle cx="760" cy="60" r="1.4"/>
    <circle cx="1100" cy="120" r="1.2"/>
    <circle cx="1380" cy="80" r="1.5"/>
    <circle cx="1600" cy="160" r="1.3"/>
  </g>
</svg>
